<svg version="1.1" id="designs" xmlns="http://www.w3.org/2000/svg" xmlns:xlink="http://www.w3.org/1999/xlink" viewBox="0 0 32 32" xml:space="preserve" fill="#000000"><g id="SVGRepo_bgCarrier" stroke-width="0"></g><g id="SVGRepo_tracerCarrier" stroke-linecap="round" stroke-linejoin="round"></g><g id="SVGRepo_iconCarrier"> <style type="text/css"> .sketchy_een{fill:#ffffff;} </style> <path class="sketchy_een" d="M19.679,15.177c0.107-0.223,0.231-0.43,0.374-0.63c0.082-0.093,0.17-0.176,0.264-0.256 c0.188-0.134,0.382-0.246,0.593-0.344c0.197-0.076,0.394-0.142,0.6-0.186c0.104-0.006,0.206-0.005,0.31,0.003 c0.149,0.03,0.292,0.074,0.435,0.125c0.17,0.083,0.326,0.181,0.479,0.29c0.293,0.246,0.561,0.522,0.842,0.781 c0.134,0.124,0.3,0.188,0.47,0.213c0.148,0.322,0.505,0.502,0.855,0.412c0.099-0.025,0.196-0.046,0.295-0.064 c0.288-0.024,0.583-0.033,0.861-0.117c0.284-0.083,0.575-0.333,0.616-0.639c0.019-0.144,0.029-0.251,0.019-0.389 c-0.029-0.41-0.039-0.82-0.043-1.232c-0.008-0.935,0.018-1.869-0.01-2.804c-0.011-0.392-0.305-0.713-0.694-0.752 c-0.15-0.201-0.378-0.341-0.645-0.344c-0.604-0.008-1.208,0.023-1.813,0.027c-0.593,0.004-1.185,0.012-1.778,0.018 c-0.651,0.006-1.302,0.008-1.953,0.014c-0.354,0.003-0.708,0.004-1.063-0.001c0.387-0.295,0.721-0.659,0.975-1.075 c0.433-0.711,0.696-1.533,0.612-2.373c-0.023-0.233-0.054-0.464-0.109-0.693c-0.056-0.237-0.154-0.47-0.255-0.69 c-0.173-0.379-0.398-0.709-0.668-1.024c-0.272-0.319-0.647-0.554-0.997-0.777c-0.352-0.223-0.744-0.38-1.142-0.499 C16.699,2.05,16.277,2,15.854,2c-0.442,0-0.885,0.054-1.318,0.137c-0.204,0.039-0.393,0.121-0.581,0.202 c-0.14,0.06-0.278,0.123-0.402,0.21c-0.212,0.149-0.412,0.312-0.589,0.501c-0.297,0.317-0.55,0.688-0.721,1.086 C12.152,4.35,12.066,4.562,12,4.784c-0.074,0.249-0.113,0.494-0.14,0.752c-0.017,0.165-0.006,0.332,0.012,0.497 C11.897,6.27,11.934,6.501,12,6.73c0.068,0.235,0.159,0.46,0.256,0.684c0.103,0.239,0.241,0.434,0.406,0.636 c0.268,0.327,0.612,0.58,0.976,0.79c-0.002,0.109-0.003,0.217-0.005,0.327c-0.394-0.003-0.788-0.017-1.183-0.029 c-0.657-0.021-1.319-0.014-1.976-0.014c-0.311,0.002-0.62-0.002-0.929-0.006C9.257,9.115,8.969,9.112,8.68,9.112 c-0.727,0-1.453,0.018-2.177,0.104C6.491,9.218,6.481,9.223,6.468,9.225C6.444,9.222,6.422,9.21,6.397,9.21 c-0.429,0-0.783,0.355-0.785,0.785c-0.002,0.595,0,1.191,0.006,1.788c0.004,0.513-0.006,1.026,0.004,1.539 c0.006,0.237,0.016,0.476,0.019,0.713c0.004,0.258-0.037,0.579,0.056,0.822c0.076,0.204,0.192,0.389,0.387,0.498 c0.128,0.072,0.262,0.12,0.404,0.157c0.21,0.055,0.435,0.068,0.651,0.089c0.229,0.021,0.461,0.025,0.692,0.025 c0.291-0.001,0.543-0.177,0.669-0.424c0.123-0.069,0.238-0.157,0.29-0.275c0.099-0.234,0.201-0.466,0.335-0.682 c0.061-0.067,0.125-0.128,0.194-0.188c0.132-0.094,0.271-0.177,0.416-0.25c0.217-0.077,0.435-0.134,0.663-0.173 c0.258-0.027,0.517-0.037,0.776-0.017c0.179,0.034,0.349,0.079,0.521,0.142c0.193,0.092,0.372,0.2,0.545,0.325 c0.114,0.098,0.219,0.201,0.318,0.313c0.109,0.159,0.2,0.321,0.28,0.496c0.106,0.283,0.184,0.57,0.238,0.87 c0.026,0.257,0.036,0.51,0.017,0.767c-0.025,0.121-0.058,0.237-0.097,0.354c-0.098,0.207-0.211,0.396-0.344,0.583 c-0.154,0.184-0.317,0.352-0.498,0.507c-0.107,0.074-0.216,0.139-0.333,0.197c-0.238,0.087-0.48,0.151-0.73,0.195 c-0.192,0.02-0.381,0.029-0.574,0.02c-0.229-0.046-0.449-0.12-0.667-0.204c-0.193-0.091-0.373-0.2-0.548-0.322 c-0.117-0.098-0.226-0.202-0.328-0.317c-0.1-0.14-0.191-0.287-0.277-0.435c-0.237-0.414-0.787-0.554-1.197-0.314 c-0.022,0.013-0.036,0.036-0.056,0.051c-0.268-0.016-0.538-0.024-0.807-0.027c-0.01,0-0.021,0-0.031,0 c-0.296,0-0.617,0.081-0.81,0.321c-0.041,0.054-0.082,0.106-0.122,0.159c-0.041,0.091-0.08,0.183-0.115,0.278 c-0.019,0.054-0.029,0.123-0.039,0.181c-0.023,0.155-0.047,0.311-0.064,0.466c-0.08,0.77-0.084,1.552-0.093,2.326 c-0.012,0.771-0.012,1.543-0.033,2.314c-0.012,0.406-0.021,0.81-0.025,1.216c-0.004,0.352,0.017,0.706,0.029,1.059 c0.023,0.657,0.043,1.315,0.058,1.974c0.014,0.633,0.039,1.271,0.014,1.904c-0.016,0.408,0.354,0.748,0.748,0.748 c0.01,0,0.019-0.005,0.029-0.006c0.002,0,0.003,0.001,0.005,0.001c1.273-0.023,2.543-0.074,3.818-0.061 c0.579,0.006,1.158,0.018,1.737,0.025c0.591,0.01,1.179,0.035,1.77,0.035c0.147,0,0.278-0.053,0.396-0.125 c0.14,0.141,0.332,0.23,0.541,0.23c0.418,0,0.76-0.348,0.764-0.764c0.002-0.387,0.002-0.773,0.019-1.16 c0.021-0.431,0.05-0.863,0.072-1.294c0.002-0.04-0.016-0.074-0.021-0.112c0.029-0.052,0.063-0.101,0.079-0.158 c0.054-0.198,0.027-0.414-0.076-0.589c-0.109-0.185-0.264-0.28-0.459-0.352c-0.07-0.027-0.14-0.054-0.209-0.081 c-0.14-0.067-0.274-0.143-0.402-0.231c-0.031-0.03-0.06-0.06-0.089-0.091c-0.107-0.159-0.199-0.325-0.279-0.499 c-0.068-0.187-0.11-0.377-0.144-0.571c-0.022-0.223-0.028-0.442-0.009-0.665c0.03-0.133,0.064-0.262,0.109-0.389 c0.068-0.136,0.145-0.265,0.229-0.392c0.158-0.183,0.329-0.344,0.515-0.496c0.175-0.123,0.354-0.231,0.545-0.324 c0.162-0.057,0.324-0.098,0.492-0.128c0.237-0.017,0.469-0.011,0.706,0.011c0.255,0.044,0.498,0.102,0.739,0.191 c0.271,0.14,0.522,0.303,0.768,0.48c0.272,0.22,0.521,0.467,0.747,0.733c0.062,0.089,0.117,0.18,0.166,0.276 c0.054,0.163,0.092,0.328,0.121,0.498c0.013,0.152,0.018,0.301,0.009,0.453c-0.033,0.18-0.082,0.354-0.146,0.526 c-0.091,0.197-0.19,0.389-0.311,0.572c-0.049,0.057-0.1,0.112-0.155,0.167c-0.066,0.067-0.113,0.146-0.149,0.228 c-0.325,0.098-0.591,0.392-0.575,0.746c0.019,0.412,0.039,0.824,0.056,1.236c0.011,0.223,0.021,0.453,0.02,0.682 c-0.281,0.12-0.483,0.409-0.483,0.721c0,0.433,0.356,0.771,0.781,0.781c0.635,0.013,1.271,0.006,1.906,0.015 c0.299,0.004,0.598,0.01,0.898,0.023c0.303,0.014,0.604,0.043,0.907,0.053c0.614,0.021,1.228,0.029,1.84,0.035 c0.562,0.008,1.117,0.014,1.675-0.046c0.212-0.023,0.387-0.07,0.542-0.226c0.051-0.051,0.085-0.116,0.119-0.178 c0.403-0.015,0.77-0.359,0.755-0.776c-0.025-0.713-0.025-1.428-0.041-2.141c-0.017-0.744,0.01-1.486,0.018-2.229 c0.01-0.771,0.047-1.542,0.047-2.314c0-0.764,0.006-1.527,0.025-2.292c0.016-0.655,0.074-1.312,0.074-1.968 c0-0.187-0.025-0.441-0.136-0.603c-0.138-0.204-0.288-0.324-0.519-0.408c-0.138-0.05-0.289-0.069-0.434-0.069 c-0.014,0-0.028,0-0.042,0c-0.396,0.01-0.797,0.08-1.187,0.14c-0.051,0.008-0.097,0.045-0.146,0.07 c-0.279,0.006-0.554,0.134-0.695,0.39c-0.033,0.059-0.069,0.116-0.107,0.172c-0.088,0.103-0.182,0.199-0.283,0.288 c-0.054,0.037-0.11,0.071-0.168,0.102c-0.278,0.098-0.569,0.164-0.859,0.212c-0.186,0.019-0.369,0.025-0.555,0.011 c-0.268-0.047-0.531-0.117-0.785-0.212c-0.204-0.095-0.4-0.2-0.586-0.326c-0.062-0.056-0.12-0.114-0.174-0.177 c-0.114-0.174-0.205-0.359-0.289-0.549c-0.028-0.071-0.056-0.143-0.083-0.214c-0.048-0.133-0.074-0.269-0.098-0.406 c-0.011-0.144-0.01-0.285,0.003-0.428C19.547,15.6,19.604,15.388,19.679,15.177z M17.892,16.638 c0.029,0.155,0.062,0.305,0.111,0.455c0.091,0.276,0.218,0.548,0.346,0.808c0.14,0.282,0.317,0.536,0.526,0.771 c0.218,0.243,0.515,0.421,0.801,0.575c0.466,0.252,0.968,0.421,1.492,0.497c0.258,0.037,0.497,0.062,0.758,0.041 c0.243-0.02,0.488-0.057,0.727-0.103c0.441-0.085,0.915-0.206,1.288-0.462c0.319-0.219,0.596-0.517,0.816-0.842 c0.127-0.021,0.254-0.042,0.382-0.062c0.001,0.195-0.005,0.391-0.007,0.585c-0.004,0.381-0.004,0.764-0.004,1.145 c-0.004,0.783,0,1.566-0.008,2.349c-0.006,0.76-0.062,1.519-0.093,2.277c-0.029,0.74-0.043,1.479-0.047,2.219 c-0.002,0.516-0.01,1.033-0.016,1.55c-0.02,0.003-0.04-0.005-0.06,0c-0.02,0.003-0.04,0.006-0.06,0.009 c-0.491,0.053-0.992,0.043-1.484,0.047c-0.595,0.004-1.189-0.002-1.784-0.018c-0.821-0.021-1.64-0.067-2.46-0.111 c-0.001-0.042,0-0.084-0.001-0.126c0-0.181,0.002-0.359,0.002-0.539c0-0.33-0.011-0.659-0.021-0.988 c0.082-0.036,0.161-0.083,0.227-0.15c0.593-0.612,1.004-1.442,1.086-2.293c0.039-0.421-0.021-0.839-0.105-1.253 c-0.13-0.649-0.575-1.174-1.028-1.632c-0.291-0.295-0.628-0.556-0.971-0.787c-0.35-0.233-0.752-0.428-1.162-0.525 c-0.39-0.091-0.803-0.166-1.206-0.166c-0.028,0-0.056,0-0.085,0.001c-0.241,0.008-0.476,0.039-0.715,0.076 c-0.272,0.041-0.523,0.154-0.771,0.262c-0.218,0.095-0.416,0.229-0.604,0.369c-0.262,0.196-0.529,0.398-0.748,0.642 c-0.21,0.233-0.393,0.485-0.536,0.763c-0.192,0.373-0.299,0.748-0.342,1.164c-0.031,0.321-0.006,0.641,0.049,0.96 c0.058,0.361,0.146,0.699,0.303,1.034c0.146,0.316,0.323,0.625,0.552,0.892c0.197,0.229,0.443,0.396,0.706,0.535 c-0.001,0.013-0.008,0.024-0.008,0.038c-0.021,0.521-0.024,1.042-0.031,1.564c-0.059-0.015-0.115-0.038-0.178-0.038 c-0.004,0-0.009,0-0.013,0c-1.17,0.018-2.337,0.05-3.507,0.064c-0.729,0.008-1.455,0.006-2.182,0.004 c-0.316-0.001-0.632-0.001-0.948-0.001c-0.008-0.462-0.01-0.924-0.021-1.385c-0.016-0.729-0.035-1.457-0.062-2.186 c-0.027-0.752-0.012-1.502-0.012-2.254c-0.002-0.808,0.01-1.615,0.052-2.423c0.027-0.505,0.064-1.009,0.12-1.512 c0.007-0.045,0.015-0.089,0.023-0.134c0.163,0.005,0.325,0.022,0.488,0.038c0.135,0.186,0.277,0.366,0.441,0.521 c0.311,0.295,0.674,0.536,1.065,0.713c0.396,0.179,0.818,0.33,1.251,0.388c0.482,0.066,0.956,0.025,1.43-0.082 c0.177-0.041,0.35-0.089,0.519-0.151c0.177-0.064,0.346-0.14,0.515-0.218c0.194-0.091,0.393-0.258,0.556-0.395 c0.365-0.307,0.684-0.691,0.936-1.098c0.101-0.163,0.183-0.334,0.256-0.513c0.062-0.146,0.12-0.286,0.163-0.438 c0.058-0.202,0.074-0.414,0.097-0.62c0.021-0.175,0.01-0.354,0.002-0.528c-0.01-0.259-0.043-0.521-0.093-0.773 c-0.06-0.299-0.144-0.589-0.258-0.873c-0.08-0.198-0.163-0.391-0.266-0.577c-0.109-0.2-0.264-0.377-0.408-0.552 c-0.101-0.124-0.229-0.233-0.356-0.33c-0.171-0.132-0.338-0.266-0.525-0.375c-0.35-0.206-0.729-0.357-1.127-0.439 c-0.262-0.054-0.532-0.08-0.803-0.08c-0.519,0-1.042,0.094-1.525,0.264c-0.451,0.159-0.828,0.416-1.17,0.742 c-0.337,0.322-0.558,0.71-0.745,1.13c-0.071-0.003-0.142,0.003-0.213-0.003c-0.016-0.003-0.032-0.005-0.048-0.008 c-0.009-0.165-0.015-0.329-0.026-0.492c-0.025-0.371-0.023-0.743-0.021-1.116c0.004-0.573,0.026-1.146,0.046-1.72 c0.492-0.058,0.984-0.107,1.479-0.122c0.61-0.018,1.224-0.006,1.836,0.012c0.311,0.01,0.622,0.017,0.933,0.021 c0.326,0.004,0.657-0.006,0.983,0.021c0.311,0.025,0.618,0.051,0.929,0.066c0.148,0.006,0.293,0.013,0.441,0.027 c0.119,0.01,0.235,0.029,0.356,0.027c0.243-0.001,0.457-0.114,0.609-0.284c0.131-0.041,0.254-0.102,0.351-0.199 c0.169-0.169,0.233-0.371,0.251-0.602c0.023-0.338,0.033-0.676,0.043-1.016c0.006-0.218-0.086-0.416-0.227-0.569 c-0.005-0.028,0.002-0.057-0.006-0.084c-0.052-0.19-0.194-0.404-0.379-0.492c-0.179-0.084-0.354-0.173-0.519-0.283 c-0.078-0.07-0.15-0.144-0.218-0.222c-0.058-0.083-0.11-0.169-0.157-0.26c-0.092-0.252-0.164-0.509-0.212-0.773 c-0.015-0.168-0.021-0.334-0.011-0.502c0.044-0.234,0.114-0.46,0.199-0.682c0.105-0.215,0.233-0.416,0.373-0.609 c0.094-0.109,0.193-0.209,0.301-0.303c0.094-0.059,0.19-0.109,0.289-0.156c0.248-0.087,0.507-0.138,0.766-0.179 c0.286-0.031,0.566-0.034,0.853-0.005c0.28,0.046,0.549,0.114,0.815,0.214c0.26,0.122,0.51,0.268,0.744,0.433 c0.122,0.103,0.233,0.215,0.336,0.335c0.103,0.148,0.189,0.305,0.266,0.467c0.084,0.221,0.147,0.442,0.188,0.677 c0.021,0.209,0.031,0.417,0.015,0.628c-0.032,0.165-0.074,0.325-0.13,0.483c-0.132,0.282-0.286,0.554-0.468,0.808 c-0.12,0.141-0.249,0.271-0.389,0.392c-0.109,0.073-0.221,0.139-0.338,0.196c-0.038,0.014-0.077,0.026-0.117,0.037 c-0.045,0.013-0.079,0.042-0.12,0.062c-0.002,0-0.004,0-0.006,0c-0.067,0-0.135,0.008-0.2,0.026 c-0.426,0.119-0.657,0.556-0.554,0.976c0.043,0.177,0.084,0.352,0.12,0.53c0.054,0.256,0.15,0.48,0.326,0.678 c0.253,0.282,0.684,0.292,1.034,0.311c0.187,0.009,0.377,0.005,0.563,0.005c0.785-0.005,1.57-0.035,2.355-0.035 c0.738-0.002,1.477,0.006,2.215,0.016c0.375,0.006,0.752,0.004,1.127,0.012c0.306,0.008,0.614,0.008,0.92,0.022 c0.028,0.587,0.057,1.175,0.063,1.764c0.004,0.321,0.002,0.64,0.008,0.96c0.003,0.154,0.006,0.31,0.005,0.465 c-0.093,0.011-0.185,0.029-0.278,0.042c-0.038-0.112-0.097-0.216-0.189-0.299c-0.305-0.276-0.608-0.554-0.935-0.806 c-0.177-0.136-0.356-0.268-0.544-0.389c-0.212-0.134-0.457-0.228-0.692-0.305c-0.299-0.099-0.624-0.158-0.943-0.158 c-0.077,0-0.153,0.003-0.229,0.011c-0.422,0.039-0.806,0.177-1.193,0.344c-0.453,0.196-0.855,0.458-1.222,0.791 c-0.087,0.078-0.157,0.179-0.231,0.27c-0.095,0.118-0.187,0.239-0.27,0.365c-0.144,0.227-0.264,0.464-0.361,0.713 c-0.171,0.431-0.264,0.894-0.29,1.356C17.814,16.204,17.853,16.43,17.892,16.638z"></path> </g></svg>